<svg xmlns="http://www.w3.org/2000/svg" xmlns:xlink="http://www.w3.org/1999/xlink" id="Layer_1" x="0px" y="0px" viewBox="0 0 1281.3 100" style="enable-background:new 0 0 1281.3 100;" xml:space="preserve"><style type="text/css">	.st0{fill:#FFFFFF;}	.st1{fill:#F39314;}</style><g id="OBJECTS">	<path class="st0" d="M68.4,98.1V53.8H12v44.3H0V1.6h12v41.5h56.4V1.6h12v96.5H68.4z"></path>	<path class="st0" d="M103,98.1V1.6h63.2v10.7h-51.2v31.1h50.2v10.7h-50.2v33.3h51.2v10.7H103z"></path>	<path class="st0" d="M241.2,98.1l-24.4-38.4h-19.4v38.4h-12V1.6h38.8c17.6,0,30.4,11.3,30.4,29.1c0,17.4-12,26.9-25.2,28.1  l26.1,39.4H241.2z M242.1,30.7c0-11-8-18.4-19.4-18.4h-25.3v36.9h25.3C234.2,49.2,242.1,41.5,242.1,30.7z"></path>	<path class="st0" d="M273.5,98.1V25.3h12v72.8H273.5z"></path>	<path class="st1" d="M273.5,13.5V1.6h12v11.9H273.5z"></path>	<path class="st1" d="M332,98.1V12.3h-30.5V1.6h73.2v10.7H344v85.8H332z"></path>	<path class="st0" d="M449.8,98.1l-8.5-21.6h-48l-8.5,21.6h-13.8l38.9-96.5h14.9l38.8,96.5L449.8,98.1z M417.2,13.9L396.8,66h41  L417.2,13.9z"></path>	<path class="st0" d="M466.9,49.9C466.9,19.8,489,0,516.5,0c17.2,0,29.1,7.5,37.5,18l-9.5,6c-6.8-8.5-17.1-13.4-27.9-13.3  c-21.1,0-37.2,16.1-37.2,39.2c0,22.9,16.1,39.2,37.2,39.2c9.7,0,19-3.8,26-10.4V59.2h-33.3V48.5h45.2v34.7  c-9.6,10.8-23.4,17-37.9,16.8C489,100,466.9,79.9,466.9,49.9z"></path>	<path class="st0" d="M574,98.1V1.6h63.2v10.7H586v31.1h50.2v10.7H586v33.3h51.2v10.7H574z"></path>	<path class="st1" d="M717.7,98.1V12.3h-30.5V1.6h73.2v10.7h-30.7v85.8H717.7z"></path>	<path class="st0" d="M776.3,98.1V1.6h63.2v10.7h-51.2v31.1h50.2v10.7h-50.2v33.3h51.2v10.7H776.3z"></path>	<path class="st0" d="M941.2,98.1V16.9l-32.7,81.2h-4.9l-32.9-81.2v81.2h-12V1.6h17.2L906,76l30-74.4h17.2v96.5H941.2z"></path>	<path class="st0" d="M975.8,98.1V1.6h38.8c19.4,0,30.2,13.3,30.2,29.1s-11,29.1-30.2,29.1h-26.8v38.4H975.8z M1032.3,30.7  c0-10.9-7.8-18.4-19.2-18.4h-25.3v36.8h25.3C1024.5,49.1,1032.3,41.5,1032.3,30.7z"></path>	<path class="st0" d="M1059.1,98.1V1.6h12v85.8h26.3v10.7H1059.1z"></path>	<path class="st0" d="M1132.1,98.1V1.6h63.2v10.7h-51.2v31.1h50.2v10.7h-50.2v33.3h51.2v10.7H1132.1z"></path>	<path class="st0" d="M1208.6,84.5l7.2-9.3c7.6,8.8,18.6,13.9,30.2,13.9c17.2,0,22.7-9.3,22.7-16.8c0-24.9-57.2-11-57.2-45.4  c0-15.9,14.2-26.9,33.3-26.9c14.6,0,26,5.1,34.2,13.6l-7.2,8.8c-7.2-8.1-17.4-11.6-27.9-11.6c-11.4,0-19.8,6.2-19.8,15.3  c0,21.7,57.2,9.3,57.2,45.3c0,13.9-9.6,28.4-35.6,28.4C1229,99.8,1216.6,93.5,1208.6,84.5z"></path>	<path class="st1" d="M1104,98.1V87.4h12v10.7L1104,98.1z"></path></g></svg>